# xmcd
#
# Track frame offsets:
#	150
#	19425
#	41100
#	58200
#	75900
#	94350
#	114900
#	135225
#	154350
#	168710
#	189758
#	212108
#	230783
#	252983
#	275558
#	291458
#
# Disc length: 4175 seconds
#
# Revision: 1
# Processed by: cddbd v1.5.1PL0 Copyright (c) Steve Scherf et al.
# Submitted via: audiograbber 1.82.02
#
DISCID=ee104d10
DTITLE=Party Tyme R&B Female - PTRBF
DYEAR=1900
DGENRE=R&B
TTITLE0=Deborah Cox - Nobody's Supposed To Be Here
TTITLE1=Whitney Houston, K. Price, Faith Evans - Heartbreak Hotel
TTITLE2=Brandy - Have You Ever
TTITLE3=Lauryn Hill - Can't Take My Eyes Off Of You
TTITLE4=Mariah Carey - I Still Believe
TTITLE5=Tamia - So Into You
TTITLE6=Janet Jackson - Together Again
TTITLE7=Toni Braxton - You're Makin' Me High
TTITLE8=Tatyana Ali - Daydreamin'
TTITLE9=Whitney Houston and Mariah Carey - When You Believe
TTITLE10=Mary J. Blige - Not Gon' Cry
TTITLE11=Brandy - Rock With You
TTITLE12=Janet Jackson - Go Deep
TTITLE13=Tamia - You Put A Move On My Heart
TTITLE14=Xscape - Who Can I Run To
TTITLE15=Faith Evans - Soon As I Get Home
EXTD=
EXTT0=
EXTT1=
EXTT2=
EXTT3=
EXTT4=
EXTT5=
EXTT6=
EXTT7=
EXTT8=
EXTT9=
EXTT10=
EXTT11=
EXTT12=
EXTT13=
EXTT14=
EXTT15=
PLAYORDER=
